# xmcd
#
# Track frame offsets:
#	182
#	16930
#	28515
#	46437
#	62802
#	77322
#	98857
#	116190
#	132922
#	146972
#	162605
#	188310
#	203927
#	221905
#	236302
#	250892
#
# Disc length: 3525 seconds
#
# Revision: 0
# Processed by: cddbd v1.5.2PL0 Copyright (c) Steve Scherf et al.
# Submitted via: EasyCDDAExtractor 16.0.3.2
#
DISCID=e10dc310
DTITLE=Telmo De Lima Freitas - Tempos De Praça
DYEAR=2010
DGENRE=Brazil
TTITLE0=Prenda Minha
TTITLE1=Faz De Conta
TTITLE2=Cantiga De Roda
TTITLE3=Gaudério Da Silva
TTITLE4=Cevando Mate
TTITLE5=Tempos De Praça
TTITLE6=Canto Do Entardecer
TTITLE7=Alambrado De Cordas
TTITLE8=Primavera De Sonhos
TTITLE9=De Pé No Estribo
TTITLE10=Ruminando Penas
TTITLE11=Aguateiro
TTITLE12=Alma De Galpão
TTITLE13=Morena Rosa
TTITLE14=Bolicho Do Tio Candinho
TTITLE15=Garbo De Piá
EXTD=
EXTT0=
EXTT1=
EXTT2=
EXTT3=
EXTT4=
EXTT5=
EXTT6=
EXTT7=
EXTT8=
EXTT9=
EXTT10=
EXTT11=
EXTT12=
EXTT13=
EXTT14=
EXTT15=
PLAYORDER=
